<?xml version="1.0" standalone="no"?>
<!DOCTYPE svg PUBLIC "-//W3C//DTD SVG 20010904//EN"
 "http://www.w3.org/TR/2001/REC-SVG-20010904/DTD/svg10.dtd">
<svg version="1.0" xmlns="http://www.w3.org/2000/svg"
 width="300.000000pt" height="322.000000pt" viewBox="0 0 300.000000 322.000000"
 preserveAspectRatio="xMidYMid meet">
<metadata>
Created by potrace 1.10, written by Peter Selinger 2001-2011
</metadata>
<g transform="translate(0.000000,322.000000) scale(0.100000,-0.100000)"
fill="#000000" stroke="none">
<path d="M1340 2951 c-151 -49 -313 -217 -410 -424 -119 -253 -123 -454 -15
-653 l32 -60 -126 -43 c-150 -52 -195 -76 -245 -132 -57 -63 -72 -105 -131
-386 -57 -266 -62 -312 -45 -359 10 -25 251 -357 256 -351 1 1 -2 61 -6 132
-5 72 -12 214 -16 317 l-7 187 36 36 35 35 737 0 737 0 35 -35 36 -36 -7 -177
c-4 -97 -11 -240 -16 -317 -4 -77 -7 -141 -6 -142 1 -1 57 71 124 162 121 160
142 200 142 260 0 41 -106 537 -125 581 -44 106 -112 157 -293 219 l-140 48
28 51 c111 198 110 405 -5 654 -82 176 -223 340 -348 404 -53 27 -75 32 -147
34 -47 2 -96 0 -110 -5z m189 -44 c17 -9 29 -11 26 -6 -11 17 8 9 53 -23 122
-89 208 -190 277 -325 22 -43 44 -81 49 -84 5 -4 6 -16 3 -28 -3 -13 0 -21 7
-21 6 0 12 -8 12 -17 1 -10 9 -45 18 -78 40 -142 27 -270 -40 -412 -19 -39
-34 -80 -34 -90 0 -22 46 -70 56 -60 4 4 23 -2 43 -12 20 -11 66 -29 102 -41
120 -38 195 -103 228 -200 22 -65 111 -507 111 -551 -1 -24 -9 -58 -18 -75
-26 -46 -145 -204 -154 -204 -5 0 -5 89 -1 198 12 303 12 303 -19 344 -49 64
-61 66 -381 69 -158 1 -290 -1 -294 -4 -3 -4 -10 -4 -14 -1 -17 10 -838 4
-866 -7 -57 -21 -108 -92 -97 -134 3 -13 1 -26 -5 -29 -7 -5 -7 -13 2 -28 9
-16 9 -22 0 -25 -8 -3 -9 -12 -4 -26 11 -30 24 -357 14 -357 -9 0 -122 149
-144 190 -8 13 -21 30 -29 37 -10 9 -11 12 -2 13 16 0 16 27 0 33 -9 4 -9 8
-3 14 6 4 11 24 12 43 1 19 18 112 37 205 20 94 41 194 47 223 31 159 99 225
310 297 95 33 139 59 139 83 0 11 -16 53 -35 94 -35 77 -79 248 -63 248 5 0 6
4 3 10 -3 5 1 51 10 101 48 282 255 571 457 640 62 21 141 19 187 -4z"/>
<path d="M1185 2324 c-77 -40 -84 -74 -25 -128 39 -35 40 -36 14 -36 -15 0
-45 5 -67 12 -37 11 -41 10 -59 -12 -16 -20 -19 -34 -13 -73 19 -146 117 -300
249 -391 137 -94 201 -85 363 51 92 77 173 224 189 341 5 43 3 53 -15 71 -13
13 -29 20 -39 17 -42 -14 -113 -23 -117 -15 -3 4 4 10 15 14 11 3 25 15 31 26
5 11 15 16 21 13 7 -5 8 -2 3 6 -5 8 -2 18 9 25 15 11 13 15 -15 43 -42 41
-81 56 -124 48 -47 -9 -97 -54 -97 -87 0 -26 -1 -26 -39 -12 -34 11 -45 11
-75 -2 -45 -19 -43 -19 -37 5 7 28 -19 64 -60 84 -44 20 -74 20 -112 0z m114
-43 c36 -25 36 -38 -1 -61 -49 -30 -92 -25 -140 18 -16 14 -16 16 6 33 52 41
88 44 135 10z m389 -1 c17 -11 32 -24 32 -29 0 -16 -66 -51 -96 -51 -26 0 -94
37 -94 52 0 14 67 48 95 48 17 0 45 -9 63 -20z m-187 -104 c24 -18 59 -38 78
-45 48 -16 145 -14 188 4 20 8 38 14 40 11 9 -8 -27 -148 -51 -198 -39 -83
-113 -167 -199 -225 -106 -72 -136 -72 -241 -3 -132 89 -211 203 -242 349 -8
40 -13 75 -11 77 2 3 20 -3 40 -11 43 -18 134 -20 189 -3 21 6 55 26 76 44 47
42 78 42 133 0z"/>
<path d="M715 1176 c-21 -15 -22 6 1 -471 9 -193 20 -345 26 -353 15 -18 1371
-18 1386 1 9 11 42 608 42 754 0 51 -3 64 -19 73 -13 7 -256 10 -718 10 -572
0 -703 -2 -718 -14z m1408 -49 c13 -21 14 -48 6 -203 -5 -98 -13 -259 -18
-357 -5 -98 -12 -181 -16 -185 -4 -4 -157 -7 -341 -7 -184 0 -334 -2 -334 -5
0 -3 -13 -5 -30 -5 -16 0 -30 2 -30 5 0 3 -127 4 -283 2 -253 -3 -285 -2 -297
13 -10 12 -17 88 -26 283 -7 147 -15 308 -17 357 -3 50 -1 98 4 108 9 16 52
17 688 17 l679 0 15 -23z"/>
<path d="M1380 978 c-48 -13 -118 -83 -131 -130 -6 -22 -7 -71 -3 -116 6 -69
10 -80 38 -107 17 -16 39 -42 49 -57 17 -27 21 -28 95 -28 78 0 122 16 122 43
0 7 14 24 31 38 28 23 32 33 42 112 12 102 0 141 -62 200 -55 53 -108 66 -181
45z m129 -48 c22 -11 49 -36 61 -56 21 -33 22 -44 16 -122 -7 -93 -16 -112
-53 -112 -23 0 -25 -3 -19 -35 5 -27 4 -35 -8 -35 -8 0 -17 10 -19 23 l-4 22
-8 -22 c-9 -29 -35 -30 -35 -2 0 11 -4 18 -10 14 -5 -3 -7 -12 -3 -20 3 -9 -1
-15 -10 -15 -8 0 -18 10 -22 23 l-8 22 -4 -22 c-2 -13 -11 -23 -20 -23 -12 0
-14 7 -9 35 6 32 5 35 -16 35 -38 0 -48 13 -54 76 -10 91 -6 125 20 165 44 66
131 87 205 49z"/>
<path d="M1318 765 c-17 -38 3 -75 42 -75 21 0 34 8 46 25 15 23 15 27 0 50
-12 17 -25 25 -46 25 -23 0 -33 -6 -42 -25z"/>
<path d="M1464 765 c-15 -23 -15 -27 0 -50 30 -46 96 -26 96 29 0 46 -69 61
-96 21z"/>
<path d="M1416 694 c-3 -9 -6 -27 -6 -40 0 -19 5 -24 25 -24 20 0 25 5 25 24
0 34 -10 56 -25 56 -7 0 -16 -7 -19 -16z"/>
<path d="M721 256 c-7 -8 -11 -30 -9 -48 l3 -33 720 0 720 0 3 33 c6 66 50 62
-723 62 -598 0 -704 -2 -714 -14z m547 -28 c-7 -21 -36 -34 -49 -21 -6 6 -8
16 -5 22 10 15 59 14 54 -1z m736 -4 c12 -16 51 -9 40 7 -3 5 2 9 10 9 9 0 16
-5 16 -11 0 -6 9 -8 20 -4 11 4 20 2 20 -4 0 -6 -12 -11 -26 -11 -14 0 -34 -5
-45 -10 -23 -13 -59 3 -59 25 0 19 10 19 24 -1z m-812 -6 c-8 -8 -71 -13 -197
-16 -184 -4 -241 0 -230 18 4 6 93 10 223 10 168 0 213 -3 204 -12z m763 -1
c-14 -9 -111 -13 -345 -14 -179 -2 -330 -5 -337 -8 -7 -2 -13 0 -13 6 0 23 63
28 380 28 268 0 331 -2 315 -12z"/>
</g>
</svg>
